<?xml version="1.0" encoding="utf-8"?>
<?xml-stylesheet type="text/xsl" href="rss1.xsl"?>
<rss version="2.0" xmlns:atom="http://www.w3.org/2005/Atom" xmlns:content="http://purl.org/rss/1.0/modules/content/" xmlns:dc="http://purl.org/dc/elements/1.1/" xmlns:media="http://search.yahoo.com/mrss/">
<channel>
 <title>Getty</title>
 <link>http://www.gettyimg.com/</link>
 <atom:link href="http://www.gettyimg.com/" rel="self" type="application/rss+xml" />

 
                <item>
                <title><![CDATA[【HD Live Performances】Reik Live On Max 2021 HBOMax.WEB-DL.1080p-Tknobi]]></title>
                <link><![CDATA[https://sharemania.us/threads/reik-live-on-max-2021-hbomax-web-dl-1080p-tknobi.223559/]]></link>
                <description><![CDATA[<article>
<blockquote class="messageText SelectQuoteContainer ugc baseHtml">
<div style="text-align: center"><img src="https://i.postimg.cc/Hkmk79V1/Reik-mp4.jpg" class="bbCodeImage LbImage" alt="[​IMG]" data-url="https://i.postimg.cc/Hkmk79V1/Reik-mp4.jpg" style=""> <br>
​</div>
<div class="ToggleTriggerAnchor bbCodeSpoilerContainer">
<button type="button" class="button bbCodeSpoilerButton ToggleTrigger Tooltip JsOnly" data-target="> .SpoilerTarget"><span>Spoiler: <span class="SpoilerTitle">MediaInfo</span></span></button>
<div class="SpoilerTarget bbCodeSpoilerText">Format : MPEG-4<br>
Format profile : Base Media<br>
Codec ID : isom (isom/dby1/iso2/avc1/mp41)<br>
File size : 4.34 GiB<br>
Duration : 1 h 11 min<br>
Overall bit rate mode : Variable<br>
Overall bit rate : 8 640 kb/s<br>
Collection : Reik<br>
Track name : Reik<br>
Description : No podíamos dejar que terminara noviembre sin ti… y sin Reik. El grupo mexicano de balada, reggaetón y pop latino llega a los escenarios de Live on Max para demostrar que el romance siempre está presente sin importar el género musical.<br>
Recorded date : 2022<br>
Writing application : Lavf60.3.100<br>
Cover : Yes<br>
<br>
Video<br>
ID : 1<br>
Format : AVC<br>
Format/Info : Advanced Video Codec<br>
Format profile : High@L4<br>
Format settings : CABAC / 4 Ref Frames<br>
Format settings, CABAC : Yes<br>
Format settings, Reference frames : 4 frames<br>
Codec ID : avc1<br>
Codec ID/Info : Advanced Video Coding<br>
Duration : 1 h 11 min<br>
Bit rate mode : Variable<br>
Bit rate : 8 250 kb/s<br>
Maximum bit rate : 12.4 Mb/s<br>
Width : 1 920 pixels<br>
Height : 1 080 pixels<br>
Display aspect ratio : 16:9<br>
Frame rate mode : Constant<br>
Frame rate : 23.976 (24000/1001) FPS<br>
Color space : YUV<br>
Chroma subsampling : 4:2:0<br>
Bit depth : 8 bits<br>
Scan type : Progressive<br>
Bits/(Pixel*Frame) : 0.166<br>
Stream size : 4.14 GiB (95%)<br>
Writing library : x264 core 157 r2965 861cec4<br>
Encoding settings : cabac=1 / ref=4 / deblock=1:0:0 / analyse=0x3:0x113 / me=hex / subme=7 / psy=1 / psy_rd=1.00:0.00 / mixed_ref=1 / me_range=16 / chroma_me=1 / trellis=1 / 8x8dct=1 / cqm=0 / deadzone=21,11 / fast_pskip=1 / chroma_qp_offset=-2 / threads=34 / lookahead_threads=5 / sliced_threads=0 / nr=0 / decimate=1 / interlaced=0 / bluray_compat=0 / constrained_intra=0 / bframes=3 / b_pyramid=2 / b_adapt=1 / b_bias=0 / direct=1 / weightb=1 / open_gop=0 / weightp=2 / keyint=96 / keyint_min=96 / scenecut=40 / intra_refresh=0 / rc_lookahead=40 / rc=2pass / mbtree=1 / bitrate=8250 / ratetol=1.0 / qcomp=0.60 / qpmin=0 / qpmax=69 / qpstep=4 / cplxblur=20.0 / qblur=0.5 / vbv_maxrate=12375 / vbv_bufsize=6187 / nal_hrd=vbr / filler=0 / ip_ratio=1.40 / aq=1:1.00<br>
Color range : Limited<br>
Color primaries : BT.709<br>
Transfer characteristics : BT.709<br>
Matrix coefficients : BT.709<br>
Codec configuration box : avcC<br>
<br>
Audio<br>
ID : 3<br>
Format : AC-3<br>
Format/Info : Audio Coding 3<br>
Commercial name : Dolby Digital<br>
Codec ID : ac-3<br>
Duration : 1 h 11 min<br>
Bit rate mode : Constant<br>
Bit rate : 384 kb/s<br>
Channel(s) : 2 channels<br>
Channel layout : L R<br>
Sampling rate : 48.0 kHz<br>
Frame rate : 31.250 FPS (1536 SPF)<br>
Compression mode : Lossy<br>
Stream size : 197 MiB (4%)<br>
Title : Español - Original<br>
Language : Spanish<br>
Service kind : Complete Main<br>
Default : Yes<br>
Alternate group : 1<br>
<br>
Text #1<br>
ID : 4<br>
Format : Timed Text<br>
Muxing mode : sbtl<br>
Codec ID : tx3g<br>
Duration : 1 h 9 min<br>
Bit rate mode : Variable<br>
Bit rate : 47 b/s<br>
Stream size : 23.8 KiB (0%)<br>
Title : Español<br>
Language : Spanish<br>
Default : Yes<br>
Forced : No<br>
Alternate group : 3<br>
<br>
Text #2<br>
ID : 5<br>
Format : Timed Text<br>
Muxing mode : sbtl<br>
Codec ID : tx3g<br>
Duration : 1 h 9 min<br>
Bit rate mode : Variable<br>
Bit rate : 41 b/s<br>
Stream size : 20.8 KiB (0%)<br>
Title : Inglés<br>
Language : English<br>
Default : No<br>
Forced : No<br>
Alternate group : 3<br>
<br>
Text #3<br>
ID : 6<br>
Format : Timed Text<br>
Muxing mode : sbtl<br>
Codec ID : tx3g<br>
Duration : 1 h 9 min<br>
Bit rate mode : Variable<br>
Bit rate : 45 b/s<br>
Stream size : 22.7 KiB (0%)<br>
Title : Portugués (Brasil)<br>
Language : Portuguese<br>
Default : No<br>
Forced : No<br>
Alternate group : 3</div>
</div><br>
SetList:<br>
<br>
Que vida la mia<br>
Invierno<br>
La Bella y la Bestia<br>
Perfecta<br>
Me Duele Amarte<br>
Lo mejor ya va a venir<br>
Yo Quisiera<br>
Los tragos<br>
Creo En Ti<br>
Vuelve<br>
Con la falta que me haces<br>
De Rodillas<br>
Loquita<br>
Me Niego<br>
<br>
<br>
<div class="bbCodeBlock bbCodeVfcHH HiddenContent">
<div class="attribution type">Hidden Content:</div>
<blockquote>You must reply before you can see the hidden data contained here.</blockquote>
</div>
<div class="messageTextEndMarker">&nbsp;</div>
</blockquote>
</article>]]></description>
                <author><![CDATA[tknobi]]></author>
                </item>

                </channel></rss>